# xmcd
#
# Track frame offsets:
#	150
#	17922
#	37502
#	62254
#	78637
#	103420
#	118377
#	150042
#	180263
#	203131
#
# Disc length: 2941 seconds
#
# Revision: 1
# Processed by: cddbd v1.5.2PL0 Copyright (c) Steve Scherf et al.
# Submitted via: audiograbber 1.83.01
#
DISCID=700b7b0a
DTITLE=Mike Monday - Songs Without Words Part 1
DYEAR=2008
DGENRE=Electronic
TTITLE0=Grace
TTITLE1=Through the Keyhole
TTITLE2=Catnip
TTITLE3=Bad Wind (with a touch of acid)
TTITLE4=The 11 11
TTITLE5=Along Came Nookle
TTITLE6=I Am Plankton
TTITLE7=Salieri Complex
TTITLE8=The Unanswered Question
TTITLE9=Stargirl
EXTD=
EXTT0=
EXTT1=
EXTT2=
EXTT3=
EXTT4=
EXTT5=
EXTT6=
EXTT7=
EXTT8=
EXTT9=
PLAYORDER=
